<?xml version="1.0" standalone="no"?>
<!DOCTYPE svg PUBLIC "-//W3C//DTD SVG 20010904//EN"
 "http://www.w3.org/TR/2001/REC-SVG-20010904/DTD/svg10.dtd">
<svg version="1.0" xmlns="http://www.w3.org/2000/svg"
 width="700.000000pt" height="700.000000pt" viewBox="0 0 700.000000 700.000000"
 preserveAspectRatio="xMidYMid meet">
<metadata>
Created by potrace 1.14, written by Peter Selinger 2001-2017
</metadata>
<g transform="translate(0.000000,700.000000) scale(0.100000,-0.100000)"
fill="#000000" stroke="none">
<path d="M3238 6995 c-2 -1 -46 -5 -98 -9 -52 -4 -106 -8 -120 -10 -14 -2 -50
-7 -80 -11 -380 -45 -759 -166 -1035 -330 -90 -54 -234 -155 -276 -195 -154
-145 -198 -192 -276 -295 -243 -321 -393 -733 -449 -1235 -4 -36 -9 -81 -11
-100 -7 -61 -10 -592 -3 -675 3 -44 5 -82 4 -84 -2 -1 -33 5 -71 15 -52 14
-107 18 -233 18 -365 2 -469 -61 -545 -331 -14 -48 -29 -122 -34 -163 -9 -69
-7 -388 2 -435 3 -11 7 -41 11 -66 30 -204 89 -398 178 -584 22 -47 28 -57 89
-150 199 -303 477 -397 799 -273 58 23 135 63 161 85 13 11 21 -4 67 -127 246
-660 570 -1163 987 -1530 72 -64 268 -210 281 -210 3 0 18 -9 32 -19 90 -64
371 -188 502 -221 50 -13 54 -14 160 -37 107 -22 340 -22 450 1 47 10 93 19
103 21 78 16 270 88 384 145 431 213 780 553 1103 1075 49 78 223 419 259 505
12 30 27 64 32 75 15 35 70 177 96 250 14 39 27 72 29 74 1 2 19 -7 39 -19
217 -134 457 -159 640 -67 111 55 216 155 302 285 126 191 213 432 259 717 3
22 8 51 10 65 10 55 12 360 3 435 -10 92 -49 237 -80 298 -50 98 -116 153
-211 176 -150 36 -323 42 -468 16 -44 -8 -85 -16 -103 -22 -17 -4 -17 4 -11
129 11 225 7 531 -11 683 -2 22 -7 65 -10 95 -4 30 -15 103 -25 162 -137 772
-512 1300 -1135 1599 -172 82 -297 127 -486 174 -58 14 -119 28 -135 31 -16 2
-49 8 -74 14 -55 11 -136 23 -170 25 -34 3 -159 17 -190 22 -29 4 -637 13
-642 8z"/>
</g>
</svg>
